<?xml version="1.0" encoding="utf-8"?>
<!-- Generator: Adobe Illustrator 16.0.0, SVG Export Plug-In . SVG Version: 6.00 Build 0)  -->
<!DOCTYPE svg PUBLIC "-//W3C//DTD SVG 1.1//EN" "http://www.w3.org/Graphics/SVG/1.1/DTD/svg11.dtd">
<svg version="1.1" xmlns="http://www.w3.org/2000/svg" xmlns:xlink="http://www.w3.org/1999/xlink" x="0px" y="0px"
	 width="566.624px" height="427.095px" viewBox="0 0 566.624 427.095" enable-background="new 0 0 566.624 427.095"
	 xml:space="preserve">
<g id="Layer_5" display="none">
</g>
<g id="Layer_3" display="none">
</g>
<g id="Layer_4">
	<radialGradient id="SVGID_1_" cx="283.312" cy="213.5479" r="250.8662" gradientUnits="userSpaceOnUse">
		<stop  offset="0.0849" style="stop-color:#4E9DDA"/>
		<stop  offset="0.2307" style="stop-color:#4B9AD5"/>
		<stop  offset="0.3998" style="stop-color:#4490C7"/>
		<stop  offset="0.5806" style="stop-color:#3780B0"/>
		<stop  offset="0.7695" style="stop-color:#266A8F"/>
		<stop  offset="0.963" style="stop-color:#104E66"/>
		<stop  offset="1" style="stop-color:#0B485D"/>
	</radialGradient>
	<path fill="url(#SVGID_1_)" d="M279.83,281.286v145.809 M279.83,427.095h45.872l0.97-131.247l58.406-56.047l127.501,187.294h54.045
		v-19.036L418.738,213.543L566.624,70.538H503.84L279.83,281.772 M81.062,66.014H0v361.081h45.305V288.97
		c0,0,77.865,0.037,121.671-0.16c15.126-0.067,30.581-5.945,37.375-9.222c19.296-9.307,51.938-33.856,51.938-33.856l-35.919-36.04
		c0,0-39.136,24.132-52.26,24.451c-13.43,0.326-122.805-0.183-122.805-0.183V115.843h85.509L81.062,66.014z M166.976,232.663
		 M45.305,233.96 M290.51,217.298l191.245-190.48L461.612,0L290.51,163.336L120.378,0L93.196,26.697L290.51,217.298z"/>
</g>
</svg>
